<?xml version="1.0" encoding="utf-8"?>
<!-- Generator: Adobe Illustrator 17.0.0, SVG Export Plug-In . SVG Version: 6.00 Build 0)  -->
<!DOCTYPE svg PUBLIC "-//W3C//DTD SVG 1.1//EN" "http://www.w3.org/Graphics/SVG/1.1/DTD/svg11.dtd">
<svg version="1.1" id="Layer_1" xmlns="http://www.w3.org/2000/svg" xmlns:xlink="http://www.w3.org/1999/xlink" x="0px" y="0px"
	 width="200px" height="200px" viewBox="0 0 200 200" enable-background="new 0 0 200 200" xml:space="preserve">
<path fill="#22418B" stroke="#000000" stroke-width="0.5" stroke-miterlimit="10" d="M108.339,104.047v-7.058l9.235-5.337
	l-2.422-4.193l-6.812,3.935v-9.665h-4.845v9.53l-6.603-3.8l-2.447,4.242l9.05,5.201v7.316l-10.452-6.111l-2.963,5.201l13.415,7.845
	l-5.115,8.829l-5.718-9.899l-4.193,2.422l5.374,9.308l-0.578,1.131l-8.423-0.639l-0.025-15.358l-6.124-0.025l0.012,11.842
	l-6.111-3.529v-10.661h-4.845v7.87l-8.362-4.833l-2.422,4.193l8.251,4.771l-6.591,3.812l2.447,4.242l9.026-5.238l6.333,3.664
	l-10.514,5.988l3.025,5.165l13.502-7.685l4.058,7.993H75.962v5.706h11.423l-6.222,7.722l-12.063-6.935l-3.074,5.3l10.255,5.902
	l-6.111,3.529l-9.235-5.324l-2.422,4.193l6.812,3.923l-9.997,5.755c0,0-1.513-2.41-1.983-3.295
	c-0.561-1.057-2.038-4.464-2.038-4.464c-14.916-48.264,0-69.783,0-69.783s19.256-31.233,22.49-43.136
	c3.566-13.145,2.017-31.639,0.836-33.324c-0.578-1.808-4.796-7.415-5.066-7.771c4.869,2.791,48.19,29.794,52.592,62.97
	C126.562,98.685,108.339,104.047,108.339,104.047z"/>
<path fill="#22418B" stroke="#000000" stroke-width="0.5" stroke-miterlimit="10" d="M55.333,164.281l9.998-5.754l-6.814-3.932
	l2.42-4.194l9.239,5.329l6.113-3.529l-10.265-5.901l3.076-5.297l12.066,6.934l6.228-7.724H75.968l0-5.711l10.539,0l-4.064-7.993
	l-13.502,7.696l-3.023-5.167l10.519-5.996l-6.336-3.658l-9.03,5.237l-2.45-4.24l6.592-3.819l-8.253-4.765l2.422-4.196l8.37,4.833
	l-0.002-7.867l4.843-0.001l0.004,10.666l6.113,3.529l-0.022-11.84l6.125,0.015l0.031,15.367l8.423,0.633l0.579-1.128l-5.376-9.312
	l4.196-2.422l5.718,9.904l5.116-8.836l-13.415-7.845l2.963-5.201l10.452,6.111v-7.316l-9.05-5.201l2.447-4.242l6.603,3.8v-9.53
	h4.845v9.665l6.812-3.935l2.422,4.193l-9.235,5.337v7.058c0,0,18.226-5.357,13.82-38.558C117.758,32.273,74.379,5.258,69.563,2.491
	c0,0,4.483,5.919,5.073,7.781c1.185,1.689,2.732,20.179-0.839,33.323c-3.233,11.9-22.492,43.14-22.492,43.14s-14.91,21.519,0,69.783
	"/>
<path fill="#1A9DD8" stroke="#000000" stroke-width="0.5" stroke-miterlimit="10" d="M59.38,167.566
	c0,0,25.215-14.777,25.482-14.777c0.307,0,14.659,1.435,14.659,1.435l6.337,10.068l6.343-10.068l14.456-1.424l24.629,14.22
	l-7.537-0.359l0.001,3.874l-4.843,0.001l-0.003-6.835l-6.087-2.817l-0.005,7.297l-6.125-0.015l-0.023-11.683l-1.531-1.132
	l-8.32,0.562l5.702,9.876l-4.196,2.422l-5.593-9.687l-4.194,5.768l-0.314,2.872l13.415,7.845l-2.963,5.201l-10.452-6.111v7.316
	l9.05,5.201l-2.447,4.242l-6.603-3.8v9.53h-4.845v-9.665l-6.812,3.935l-2.422-4.193l9.235-5.337v-7.058l-10.243,5.939l-3.05-5.312
	l13.293-7.71l-0.477-2.896l-4.772-5.54l-5.462,9.46l-4.196-2.422l5.296-9.173l-7.774-1.06l-1.145,0.792l-0.067,12.046l-5.986,0.034
	l0.043-7.735l-6.305,3.163l0.013,6.562l-4.897,0.002l-0.006-3.951L59.38,167.566z"/>
<path fill="#F79521" stroke="#000000" stroke-width="0.5" stroke-miterlimit="10" d="M154.542,163.305l-8.253-4.765l6.592-3.819
	l-2.45-4.24l-9.03,5.237l-6.336-3.658l10.519-5.996l-3.023-5.167l-11.953,6.813l-5.695-7.486h10.23l0-5.711h-10.645l4.582-8.071
	l13.323,7.657l3.076-5.297l-10.265-5.901l6.154-3.505l9.197,5.305l2.42-4.194l-6.814-3.932l8.37-4.833l-2.422-4.196l-8.253,4.765
	l-0.011-7.618l-4.897,0.002l0.02,10.438l-6.336,3.658l0.067-12.107l-5.986,0.034l-0.086,15.541l-10.295,0.762l-5.792-6.431
	c0,0,6.158-3.476,16.652-18.277c3.881-6.007,8.198-25.105,3.502-36.603c-1.003-3.949-8.497-21.15-8.731-21.691
	C123.24,41.113,191.653,102.068,154.542,163.305z"/>
</svg>
