<?xml version="1.0" encoding="utf-8"?>
<!-- Generator: Adobe Illustrator 17.0.0, SVG Export Plug-In . SVG Version: 6.00 Build 0)  -->
<!DOCTYPE svg PUBLIC "-//W3C//DTD SVG 1.1//EN" "http://www.w3.org/Graphics/SVG/1.1/DTD/svg11.dtd">
<svg version="1.1" id="Layer_1" xmlns="http://www.w3.org/2000/svg" xmlns:xlink="http://www.w3.org/1999/xlink" x="0px" y="0px"
	 width="200px" height="200px" viewBox="0 0 200 200" enable-background="new 0 0 200 200" xml:space="preserve">
<circle fill="#FFFFFF" stroke="#000000" stroke-width="0.5" stroke-miterlimit="10" cx="100" cy="100" r="100"/>
<path fill="#22418B" stroke="#000000" stroke-width="0.5" stroke-miterlimit="10" d="M109.167,105.386V98.43l9.101-5.259
	l-2.387-4.132l-6.714,3.878v-9.525h-4.775v9.392l-6.508-3.745l-2.412,4.181l8.919,5.126v7.211l-10.301-6.023l-2.921,5.126
	l13.221,7.732l-5.041,8.701l-5.635-9.755l-4.132,2.387l5.296,9.174l-0.57,1.115l-8.301-0.63l-0.024-15.136l-6.035-0.024l0.012,11.67
	l-6.023-3.478v-10.507h-4.775v7.756l-8.241-4.763l-2.387,4.132l8.132,4.702l-6.496,3.757l2.412,4.181l8.895-5.162l6.241,3.611
	l-10.361,5.902l2.981,5.09l13.306-7.574l3.999,7.877H77.259v5.623h11.258l-6.132,7.61l-11.888-6.835l-3.03,5.223l10.107,5.817
	l-6.023,3.478l-9.101-5.247l-2.387,4.132l6.714,3.866l-9.852,5.671c0,0-1.491-2.375-1.954-3.247c-0.552-1.041-2.009-4.4-2.009-4.4
	c-14.7-47.565,0-68.773,0-68.773s18.978-30.781,22.165-42.512c3.514-12.955,1.987-31.181,0.824-32.841
	c-0.57-1.781-4.726-7.307-4.993-7.659c4.799,2.751,47.492,29.363,51.831,62.059C127.127,100.103,109.167,105.386,109.167,105.386z"
	/>
<path display="none" fill="#22418B" stroke="#000000" stroke-width="0.5" stroke-miterlimit="10" d="M55.333,164.281l9.998-5.754
	l-6.814-3.932l2.42-4.194l9.239,5.329l6.113-3.529l-10.265-5.901l3.076-5.297l12.066,6.934l6.228-7.724H75.968l0-5.711l10.539,0
	l-4.064-7.993l-13.502,7.696l-3.023-5.167l10.519-5.996l-6.336-3.658l-9.03,5.237l-2.45-4.24l6.592-3.819l-8.253-4.765l2.422-4.196
	l8.37,4.833l-0.002-7.867l4.843-0.001l0.004,10.666l6.113,3.529l-0.022-11.84l6.125,0.015l0.031,15.367l8.423,0.633l0.579-1.128
	l-5.376-9.312l4.196-2.422l5.718,9.904l5.116-8.836l-13.415-7.845l2.963-5.201l10.452,6.111v-7.316l-9.05-5.201l2.447-4.242
	l6.603,3.8v-9.53h4.845v9.665l6.812-3.935l2.422,4.193l-9.235,5.337v7.058c0,0,18.226-5.357,13.82-38.558
	C117.758,32.273,74.379,5.258,69.563,2.491c0,0,4.483,5.919,5.073,7.781c1.185,1.689,2.732,20.179-0.839,33.323
	c-3.233,11.9-22.492,43.14-22.492,43.14s-14.91,21.519,0,69.783"/>
<path fill="#1A9DD8" stroke="#000000" stroke-width="0.5" stroke-miterlimit="10" d="M60.918,167.986
	c0,0,24.85-14.563,25.113-14.563c0.303,0,14.446,1.414,14.446,1.414l6.246,9.922l6.252-9.922l14.246-1.403l24.273,14.014
	l-7.428-0.354l0.001,3.818l-4.772,0.001l-0.003-6.736l-5.999-2.776l-0.005,7.191l-6.036-0.015l-0.023-11.514l-1.509-1.115
	l-8.199,0.553l5.62,9.733l-4.135,2.387l-5.512-9.547l-4.133,5.684l-0.309,2.83l13.221,7.732l-2.921,5.126l-10.301-6.023v7.21
	l8.919,5.126l-2.412,4.181l-6.508-3.745v9.392h-4.775v-9.525l-6.714,3.878l-2.387-4.132l9.101-5.259v-6.956l-10.095,5.853
	l-3.005-5.235l13.1-7.598l-0.47-2.854l-4.703-5.46l-5.383,9.323l-4.135-2.387l5.219-9.04l-7.661-1.044l-1.129,0.78l-0.066,11.872
	l-5.9,0.034l0.042-7.623l-6.213,3.117l0.013,6.467l-4.826,0.002l-0.006-3.894L60.918,167.986z"/>
<path fill="#F79521" stroke="#000000" stroke-width="0.5" stroke-miterlimit="10" d="M154.702,163.786l-8.134-4.696l6.497-3.763
	l-2.415-4.179l-8.899,5.161l-6.244-3.605l10.366-5.909l-2.979-5.092l-11.78,6.714l-5.612-7.378l10.082,0l0-5.628h-10.49l4.515-7.954
	l13.13,7.546l3.031-5.22l-10.116-5.816l6.065-3.454l9.064,5.228l2.385-4.134l-6.715-3.875l8.249-4.763l-2.387-4.135l-8.134,4.696
	l-0.011-7.508l-4.826,0.002l0.02,10.287l-6.244,3.605l0.066-11.932l-5.9,0.034l-0.085,15.316l-10.146,0.751l-5.708-6.338
	c0,0,6.069-3.425,16.411-18.012c3.825-5.92,8.079-24.742,3.451-36.073c-0.988-3.891-8.374-20.844-8.604-21.377
	C123.852,43.364,191.275,103.436,154.702,163.786z"/>
</svg>
